<svg width="329" height="497" viewBox="0 0 329 497" fill="none" xmlns="http://www.w3.org/2000/svg">
<rect x="18" y="23" width="283" height="474" fill="url(#paint0_linear_519_812)"/>
<path d="M141 68.5C141 106.332 109.436 137 70.5 137C31.5639 137 0 106.332 0 68.5C0 30.6685 31.5639 0 70.5 0C109.436 0 141 30.6685 141 68.5ZM21.1008 68.5C21.1008 95.0084 43.2176 116.498 70.5 116.498C97.7824 116.498 119.899 95.0084 119.899 68.5C119.899 41.9916 97.7824 20.5022 70.5 20.5022C43.2176 20.5022 21.1008 41.9916 21.1008 68.5Z" fill="white" fill-opacity="0.25"/>
<path d="M329 121.5C329 159.332 297.436 190 258.5 190C219.564 190 188 159.332 188 121.5C188 83.6685 219.564 53 258.5 53C297.436 53 329 83.6685 329 121.5ZM209.101 121.5C209.101 148.008 231.218 169.498 258.5 169.498C285.782 169.498 307.899 148.008 307.899 121.5C307.899 94.9916 285.782 73.5022 258.5 73.5022C231.218 73.5022 209.101 94.9916 209.101 121.5Z" fill="white" fill-opacity="0.25"/>
<defs>
<linearGradient id="paint0_linear_519_812" x1="18" y1="23" x2="301" y2="489" gradientUnits="userSpaceOnUse">
<stop stop-color="#395CCE"/>
<stop offset="1" stop-color="#3087EC" stop-opacity="0.95"/>
</linearGradient>
</defs>
</svg>
