<svg width="15" height="15" viewBox="0 0 13 13" fill="none" xmlns="http://www.w3.org/2000/svg">
<path d="M9.375 0.875C8.4785 0.875 7.666 1.043 7.031 1.3595C6.3965 1.676 5.875 2.1915 5.875 2.875V4.875C5.875 4.9395 5.8965 5.002 5.9065 5.0625C5.40601 4.93532 4.89138 4.87232 4.375 4.875C3.4785 4.875 2.666 5.043 2.031 5.3595C1.3965 5.676 0.875 6.1915 0.875 6.875V10.875C0.875 11.5585 1.3965 12.074 2.0315 12.3905C2.666 12.707 3.4785 12.875 4.375 12.875C5.2715 12.875 6.084 12.707 6.719 12.3905C7.353 12.074 7.875 11.5585 7.875 10.875V10.672C8.36412 10.8042 8.86833 10.8725 9.375 10.875C10.2715 10.875 11.084 10.707 11.719 10.3905C12.353 10.074 12.875 9.5585 12.875 8.875V2.875C12.875 2.1915 12.3535 1.676 11.7185 1.3595C11.0845 1.043 10.272 0.875 9.375 0.875ZM9.375 1.875C10.1365 1.875 10.8145 2.039 11.2655 2.2655C11.717 2.492 11.875 2.7305 11.875 2.875C11.875 3.02 11.717 3.258 11.2655 3.4845C10.815 3.711 10.1365 3.875 9.375 3.875C8.6135 3.875 7.9355 3.711 7.4845 3.4845C7.033 3.258 6.875 3.0195 6.875 2.875C6.875 2.73 7.033 2.492 7.4845 2.2655C7.935 2.039 8.6135 1.875 9.375 1.875ZM6.875 4.297C6.9275 4.326 6.9765 4.3635 7.0315 4.3905C7.666 4.707 8.4785 4.875 9.375 4.875C10.2715 4.875 11.084 4.707 11.719 4.3905C11.7735 4.3635 11.8225 4.326 11.875 4.297V4.875C11.875 5.02 11.717 5.258 11.2655 5.4845C10.8145 5.711 10.1365 5.875 9.375 5.875C8.6135 5.875 7.9355 5.711 7.4845 5.4845C7.033 5.258 6.875 5.0195 6.875 4.875V4.297ZM4.375 5.875C5.1365 5.875 5.8145 6.039 6.2655 6.2655C6.717 6.492 6.875 6.7305 6.875 6.875C6.875 7.02 6.717 7.258 6.2655 7.4845C5.8145 7.711 5.1365 7.875 4.375 7.875C3.6135 7.875 2.9355 7.711 2.4845 7.4845C2.033 7.258 1.875 7.0195 1.875 6.875C1.875 6.73 2.033 6.492 2.4845 6.2655C2.935 6.039 3.6135 5.875 4.375 5.875ZM11.875 6.297V6.875C11.875 7.02 11.717 7.258 11.2655 7.4845C10.8145 7.711 10.1365 7.875 9.375 7.875C8.86566 7.87776 8.35919 7.79858 7.875 7.6405V6.875C7.875 6.8105 7.8535 6.748 7.8435 6.6875C8.3085 6.8085 8.824 6.875 9.375 6.875C10.2715 6.875 11.084 6.707 11.719 6.3905C11.7735 6.3635 11.8225 6.326 11.875 6.297V6.297ZM1.875 8.297C1.9275 8.326 1.9765 8.3635 2.0315 8.3905C2.666 8.707 3.4785 8.875 4.375 8.875C5.2715 8.875 6.084 8.707 6.719 8.3905C6.7735 8.3635 6.8225 8.326 6.875 8.297V8.875C6.875 9.02 6.717 9.258 6.2655 9.4845C5.8145 9.711 5.1365 9.875 4.375 9.875C3.6135 9.875 2.9355 9.711 2.4845 9.4845C2.033 9.258 1.875 9.0195 1.875 8.875V8.297ZM11.875 8.297V8.875C11.875 9.02 11.717 9.258 11.2655 9.4845C10.8145 9.711 10.1365 9.875 9.375 9.875C8.8065 9.875 8.293 9.795 7.875 9.656V8.6875C8.334 8.8085 8.834 8.875 9.375 8.875C10.2715 8.875 11.084 8.707 11.719 8.3905C11.7735 8.3635 11.8225 8.326 11.875 8.297V8.297ZM1.875 10.297C1.9275 10.326 1.9765 10.3635 2.0315 10.3905C2.666 10.707 3.4785 10.875 4.375 10.875C5.2715 10.875 6.084 10.707 6.719 10.3905C6.7735 10.3635 6.8225 10.326 6.875 10.297V10.875C6.875 11.02 6.717 11.258 6.2655 11.4845C5.8145 11.711 5.1365 11.875 4.375 11.875C3.6135 11.875 2.9355 11.711 2.4845 11.4845C2.033 11.258 1.875 11.0195 1.875 10.875V10.297Z" fill="#999999"/>
</svg>
