<?xml version="1.0" encoding="utf-8"?>
<!-- Svg Vector Icons : http://www.onlinewebfonts.com/icon -->
<!DOCTYPE svg PUBLIC "-//W3C//DTD SVG 1.1//EN" "http://www.w3.org/Graphics/SVG/1.1/DTD/svg11.dtd">
<svg version="1.1" xmlns="http://www.w3.org/2000/svg" xmlns:xlink="http://www.w3.org/1999/xlink" x="0px" y="0px" viewBox="0 0 1000 1000" enable-background="new 0 0 1000 1000" xml:space="preserve">
<metadata> Svg Vector Icons : http://www.onlinewebfonts.com/icon </metadata>
<g><path d="M455,10C209.2,10,10,209.6,10,455.9c0,246.3,199.2,445.9,445,445.9c245.8,0,445-199.6,445-445.9C899.9,209.6,700.7,10,455,10L455,10L455,10z M722.5,724C651.1,795.6,556.1,835,455,835c-101.2,0-196.2-39.4-267.5-110.9C116.1,652.5,76.7,557.3,76.7,455.9c0-101.4,39.3-196.6,110.7-268.1C258.8,116.3,353.8,76.9,455,76.9c101.2,0,196.2,39.4,267.5,110.9c71.4,71.5,110.7,166.7,110.7,268.1C833.2,557.3,793.9,652.5,722.5,724L722.5,724L722.5,724z M877.1,818c-15.3-17.8-43.4-17.8-61.2,0c-17.9,15.3-17.9,43.3,0,61.2l99.5,99.4c15.3,15.3,43.4,15.3,61.2,0c17.9-15.3,17.9-43.3,0-61.2L877.1,818L877.1,818z"/></g>
</svg>